<?xml version="1.0" encoding="utf-8"?>
<!-- Generator: Adobe Illustrator 23.0.4, SVG Export Plug-In . SVG Version: 6.00 Build 0)  -->
<svg version="1.1" id="Layer_1" xmlns="http://www.w3.org/2000/svg" xmlns:xlink="http://www.w3.org/1999/xlink" x="0px" y="0px"
	 viewBox="0 0 32 32" style="enable-background:new 0 0 32 32;" xml:space="preserve">
<style type="text/css">
	.st0{fill:#008AD0;}
	.st1{fill:#333333;}
</style>
<g>
	<path class="st1" d="M27,30H5c-2.206,0-4-1.794-4-4V6c0-2.206,1.794-4,4-4h22c2.206,0,4,1.794,4,4v20C31,28.206,29.206,30,27,30z
		 M5,4C3.897,4,3,4.897,3,6v20c0,1.103,0.897,2,2,2h22c1.103,0,2-0.897,2-2V6c0-1.103-0.897-2-2-2H5z"/>
</g>
<g>
	<path class="st1" d="M26,12h-9c-0.553,0-1-0.447-1-1V8c0-0.553,0.447-1,1-1h9c0.553,0,1,0.447,1,1v3C27,11.553,26.553,12,26,12z
		 M18,10h7V9h-7V10z"/>
</g>
<g>
	<path class="st1" d="M18,16h-1c-0.553,0-1-0.447-1-1s0.447-1,1-1h1c0.553,0,1,0.447,1,1S18.553,16,18,16z"/>
</g>
<g>
	<path class="st1" d="M26,16h-1c-0.553,0-1-0.447-1-1s0.447-1,1-1h1c0.553,0,1,0.447,1,1S26.553,16,26,16z"/>
</g>
<g>
	<path class="st1" d="M22,16h-1c-0.553,0-1-0.447-1-1s0.447-1,1-1h1c0.553,0,1,0.447,1,1S22.553,16,22,16z"/>
</g>
<g>
	<path class="st1" d="M18,20h-1c-0.553,0-1-0.447-1-1s0.447-1,1-1h1c0.553,0,1,0.447,1,1S18.553,20,18,20z"/>
</g>
<g>
	<path class="st1" d="M26,20h-1c-0.553,0-1-0.447-1-1s0.447-1,1-1h1c0.553,0,1,0.447,1,1S26.553,20,26,20z"/>
</g>
<g>
	<path class="st1" d="M22,20h-1c-0.553,0-1-0.447-1-1s0.447-1,1-1h1c0.553,0,1,0.447,1,1S22.553,20,22,20z"/>
</g>
<g>
	<path class="st1" d="M18,24h-1c-0.553,0-1-0.447-1-1s0.447-1,1-1h1c0.553,0,1,0.447,1,1S18.553,24,18,24z"/>
</g>
<g>
	<path class="st1" d="M26,24h-1c-0.553,0-1-0.447-1-1s0.447-1,1-1h1c0.553,0,1,0.447,1,1S26.553,24,26,24z"/>
</g>
<g>
	<path class="st1" d="M22,24h-1c-0.553,0-1-0.447-1-1s0.447-1,1-1h1c0.553,0,1,0.447,1,1S22.553,24,22,24z"/>
</g>
<g>
	<path class="st0" d="M12,26H7c-1.103,0-2-0.897-2-2V8c0-1.103,0.897-2,2-2h5c1.103,0,2,0.897,2,2v16C14,25.103,13.103,26,12,26z
		 M7,8v16h5V8H7z"/>
</g>
</svg>
